<svg xmlns="http://www.w3.org/2000/svg" width="800" height="800" fill="none" viewBox="0 0 24 24"><path fill="#fff" d="M0 0h24v24H0z"/><path fill="#323232" fill-rule="evenodd" d="M2 12C2 6.47715 6.47715 2 12 2c5.5228 0 10 4.47715 10 10 0 5.5228-4.4772 10-10 10-5.52285 0-10-4.4772-10-10Zm9.9999-6c-2.20913 0-3.99999 1.79086-3.99999 4 0 2.2091 1.79086 4 3.99999 4 2.2091 0 4-1.7909 4-4 0-2.20914-1.7909-4-4-4Zm5.1116 9.9974c.7578.488.7208 1.5517.0307 2.1314C15.7517 19.2966 13.9581 20 12.0001 20c-1.945 0-3.72795-.6941-5.11454-1.8482-.69625-.5795-.73314-1.6486.02795-2.1398.23693-.1529.49495-.2869.77498-.4023C8.81516 15.1452 10.2542 15 12 15c1.7546 0 3.2018.1359 4.3314.5954.2822.1148.542.2487.7801.402Z" clip-rule="evenodd"/></svg>